<!--
 * AI Trainer Plugin - Upload/Download Button Icon
 * 
 * This SVG icon represents an upload/download action button with a
 * document and arrow design. It's used throughout the interface to
 * indicate file upload, download, or import/export actions.
 * 
 * DESIGN SPECIFICATIONS:
 * - Dimensions: 33x33 pixels (scalable)
 * - Viewport: 33x33 for crisp rendering
 * - Colors: #FFE7CE (cream/beige) with opacity variations
 * - Style: Outlined icon with rounded stroke caps
 * - Theme: Light, warm color scheme
 * 
 * VISUAL ELEMENTS:
 * - Document/paper representation
 * - Upward arrow indicating upload action
 * - Rounded corners for modern appearance
 * - Subtle opacity for depth
 * 
 * USAGE:
 * - File upload buttons
 * - Import/export controls
 * - Document management actions
 * - Data transfer indicators
 * - Content submission buttons
 * 
 * @package AI_Trainer
 * @subpackage Assets_Images
 * @since 1.0
 -->
<svg width="33" height="33" viewBox="0 0 33 33" fill="none" xmlns="http://www.w3.org/2000/svg">
<g clip-path="url(#clip0_436_102)">
<path opacity="0.2" d="M26.5 13.5H6.50003V27.5H26.5V13.5Z" fill="#FFE7CE"/>
<path d="M22.5 13.5H25.5C25.7652 13.5 26.0196 13.6054 26.2071 13.7929C26.3947 13.9804 26.5 14.2348 26.5 14.5V26.5C26.5 26.7652 26.3947 27.0196 26.2071 27.2071C26.0196 27.3946 25.7652 27.5 25.5 27.5H7.50003C7.23481 27.5 6.98046 27.3946 6.79292 27.2071C6.60539 27.0196 6.50003 26.7652 6.50003 26.5V14.5C6.50003 14.2348 6.60539 13.9804 6.79292 13.7929C6.98046 13.6054 7.23481 13.5 7.50003 13.5H10.5" stroke="#FFE7CE" stroke-width="2" stroke-linecap="round" stroke-linejoin="round"/>
<path d="M11.5 8.5L16.5 3.5L21.5 8.5" stroke="#FFE7CE" stroke-width="2" stroke-linecap="round" stroke-linejoin="round"/>
<path d="M16.5 3.5V17.5" stroke="#FFE7CE" stroke-width="2" stroke-linecap="round" stroke-linejoin="round"/>
</g>
<defs>
<clipPath id="clip0_436_102">
<rect width="32" height="32" fill="white" transform="translate(0.500031 0.5)"/>
</clipPath>
</defs>
</svg>
